<?xml version="1.0" encoding="UTF-8"?>
<svg width="210mm" height="297mm" version="1.1" viewBox="0 0 744.09448819 1052.3622047" xmlns="http://www.w3.org/2000/svg" xmlns:xlink="http://www.w3.org/1999/xlink">
 <defs>
  <pattern id="b" patternTransform="matrix(10 0 0 10 0 .41339)" xlink:href="#a"/>
  <pattern id="a" width="2" height="2" patternTransform="translate(0) scale(10)" patternUnits="userSpaceOnUse">
   <rect width="1" height="1"/>
   <rect x="1" y="1" width="1" height="1"/>
  </pattern>
 </defs>
 <g transform="matrix(2.9187 0 0 2.9187 -564.95 -1006.4)">
  <g transform="matrix(1.0708 0 0 1.0708 -17.278 -49.153)">
   <path d="m340.22 393.01c14.716-2.8918 12.019-11.141 13.228-18.189-6.0631 4.1337-13.464 6.7062-13.228 18.189z" fill="#deaa87" fill-rule="evenodd" stroke-miterlimit="0" stroke-width="0"/>
   <path d="m343.3 392.19c-14.716-2.8918-12.019-11.141-13.228-18.189 6.0631 4.1337 13.464 6.7062 13.228 18.189z" fill="#deaa87" fill-rule="evenodd" stroke-width="0"/>
   <path d="m274.26 617.3 9.9949 43.566 4.094 24.483 25.446 0.22573 2.4781-47.24 2.0647 24.599 1.9651 23.412 23.522-0.22574 2.3302-27.647 9.2806-41.492" fill="#483737" fill-rule="evenodd" stroke="#483737" stroke-width="1.1477px"/>
   <path d="m272.86 523.64h85.103c6.4275 0 12.2 5.2024 11.602 11.602-2.5182 26.934-7.8631 54.222-4.6769 80.443 0.77532 6.3806-0.49758 6.3405-6.9251 6.3405h-85.103c-6.4275 0-6.9251-5.4636-6.9251-5.4636l0.069-39.461-4.7459-41.859c-0.7241-6.3866 5.1745-11.602 11.602-11.602z" fill="#d4aa00" stroke-width="0"/>
   <g transform="matrix(.99969 0 0 1.1775 .098328 -37.348)">
    <circle cx="321.1" cy="556.02" r="3.0692" fill="#a80" stroke-width="0"/>
    <circle cx="320.16" cy="555.28" r=".34653" fill="#d4aa00" stroke-width="0"/>
    <circle cx="320.36" cy="556.96" r=".34653" fill="#d4aa00" stroke-width="0"/>
    <circle cx="322.14" cy="556.96" r=".34653" fill="#d4aa00" stroke-width="0"/>
    <circle cx="321.94" cy="555.28" r=".34653" fill="#d4aa00" stroke-width="0"/>
    <path d="m322.07 555.33-1.7821 1.7821" fill="none" stroke="#000" stroke-width=".13548"/>
    <path d="m320.17 555.33 1.7821 1.7821" fill="none" stroke="#000" stroke-width=".067742"/>
   </g>
   <path d="m316.12 628.63c-2.0448 6.3135 6.591 18.55 18.907 14.724 8-2.4853 18.685-13.455 14.774-18.131-1.9205-2.2963-12.748-12.574-18.08-12.047-8.3057 0.8208-19.654 3.189-12.442 6.9054 7.3941 3.81 0.35693-2.3068-3.1589 8.5489z" fill="#800000" stroke-width="0"/>
   <path d="m312.52 626.68c2.0447 6.3135-6.591 18.55-18.907 14.724-8-2.4853-18.685-13.455-14.774-18.131 1.9205-2.2963 12.748-12.574 18.08-12.047 8.3057 0.8208 19.654 3.189 12.442 6.9054-7.3941 3.81-0.35694-2.3068 3.1589 8.5489z" fill="#800000" stroke-width="0"/>
   <path d="m297.22 605.08c-3.554-14.204-8.2727-24.432-10.748-42.579l-4.5472-21.909c-7.1825-1.7528-13.211-6.1017-18.189-12.815-0.90808 2.2261-1.0083 0.81701-2.8937 7.441-1.1975 7.0276-1.5488 14.055 0 21.083 5.7273 18.908 8.7473 39.17 12.402 59.114" fill="#a80" fill-rule="evenodd" stroke="#a80" stroke-width="1px"/>
   <ellipse cx="250.95" cy="479.15" rx="7.0154" ry="6.7231" fill="#ffe6d5" stroke-width="0"/>
   <path transform="matrix(.72601 0 0 .76272 102.91 64.963)" d="m197.02 541.99s1e-5 0 1e-5 1e-5c0 0-1e-5 1e-5 -2e-5 1e-5 -3e-5 0-4e-5 -5e-5 -4e-5 -7e-5 0-1.3e-4 1.7e-4 -1.9e-4 2.8e-4 -1.8e-4 5e-4 1e-5 7e-4 6.6e-4 6.7e-4 1e-3 -1.2e-4 2e-3 -2e-3 2e-3 -4e-3 2e-3 -6e-3 -5.6e-4 -8e-3 -8e-3 -7e-3 -0.0125 2e-3 -0.0174 0.0238-0.0232 0.0384-0.021 0.0499 8e-3 0.0659 0.0694 0.0585 0.11156-0.0238 0.13593-0.19188 0.17792-0.3076 0.15499-0.3531-0.07-0.45858-0.50584-0.39201-0.80875 0.19311-0.87875 1.2772-1.1331 2.0363-0.95084 2.103 0.50495 2.6939 3.0998 2.2197 4.928-0.19323 0.74507-0.53891 1.4465-0.98899 2.0696" fill="#ffe6d5" fill-rule="evenodd" stroke="#fca" stroke-width="1px"/>
   <path d="m268.92 516.56-5.2615 11.108c8.4036 9.3871 18.811 13.429 29.523 16.662 5.7487 1.069 11.497 2.9692 17.246 2.6308 16.882 1.141 19.842-0.0383 28.354-0.29231 10.397-2.1279 15.925-4.9649 21.046-9.3538 6.9309-1.1 6.0234-6.2742 8.7692-8.7692l-7.8923-7.8923z" fill="#4a0" fill-rule="evenodd" stroke="#4a0" stroke-width="1px"/>
   <ellipse cx="318.03" cy="466.64" rx="70.178" ry="68.424" fill="#ffe6d5" stroke-width="0"/>
   <path d="m361.27 444.1c-32.51 22.998-71.627 26.13-114.9 34.066-1.5558-25.251 1.3984-48.561 18.742-69.218 25.993-23.933 48.255-18.275 76.337-21.314 28.363 11.15 45.658 29.404 51.986 55.978 4.387 39.05-6.6469 32.794-20.729 18.668-4.647-4.6616-7.8916-12.249-11.441-18.18z" fill="#deaa87" fill-rule="evenodd" stroke-width="0"/>
   <path d="m289.79 500.88a13.446 14.031 0 0 1 -7.8449 -13.472 13.446 14.031 0 0 1 9.1068 -12.578 13.446 14.031 0 0 1 14.563 4.1935 13.446 14.031 0 0 1 1.6359 15.671" fill="#f9f9f9" stroke-width="0"/>
   <ellipse cx="303.8" cy="492.21" rx="2.922" ry="3.1655" fill="#333" stroke="#784421" stroke-width=".83301"/>
   <path transform="scale(-1,1)" d="m-350.07 499.71a13.446 14.031 0 0 1 -7.8449 -13.472 13.446 14.031 0 0 1 9.1068 -12.578 13.446 14.031 0 0 1 14.563 4.1935 13.446 14.031 0 0 1 1.6359 15.671" fill="#f9f9f9" stroke-width="0"/>
   <ellipse transform="scale(-1,1)" cx="-335.47" cy="490.7" rx="2.922" ry="3.1655" fill="#333" stroke="#784421" stroke-width=".83301"/>
   <ellipse cx="290.05" cy="505.04" rx="6.1109" ry="2.1311" fill="#e9afaf" stroke="#e9afaf" stroke-width=".89096"/>
   <ellipse cx="349.04" cy="504.69" rx="5.711" ry="2.1445" fill="#e9afaf" stroke="#e9afaf" stroke-width=".86403"/>
   <path d="m327.42 504.76a8.0288 5.4537 0 0 1 -0.62595 7.1933 8.0288 5.4537 0 0 1 -10.584 0.49257 8.0288 5.4537 0 0 1 -2.0645 -7.0681" fill="#ffe6d5" stroke="#784421" stroke-width=".8"/>
   <path d="m277.83 475.26 16.954-11.692c-9.0119-3.944-12.352 5.3467-16.954 11.692z" fill="#520" fill-rule="evenodd" stroke-width="0"/>
   <path d="m359.13 476.43-16.954-11.692c9.0119-3.944 12.352 5.3467 16.954 11.692z" fill="#520" fill-rule="evenodd" stroke-width="0"/>
   <path d="m311.69 529.09-5.7874 1.6535" fill="none" stroke="#502d16" stroke-width="1px"/>
   <ellipse cx="302.81" cy="491.05" rx=".61328" ry=".73593" fill="#fff" stroke="#fff" stroke-width="1.1868"/>
   <ellipse cx="334.22" cy="488.98" rx=".61328" ry=".73593" fill="#fff" stroke="#fff" stroke-width="1.1868"/>
   <path d="m282.37 541.41-13.818 37.708-9.8589 14.031 18.708 6.1385 9.9718-37.331 10.782-16.746z" fill="#4a0" fill-rule="evenodd" stroke="#4a0" stroke-width="1px"/>
   <path d="m282.37 541.41c-5.2282 9.7381-8.9369 24.035-13.405 36.054l-10.272 15.684 18.708 6.1385 10.334-38.273 10.42-15.804z" fill="url(#a)" fill-rule="evenodd" stroke-width="0"/>
   <path d="m268.64 515.56-4.9783 12.524c8.4197 9.4354 19.477 15.426 29.523 16.662 5.7487 1.069 11.497 2.9692 17.246 2.6308 16.882 1.141 19.842-0.0383 28.354-0.29231 10.397-2.1279 15.925-4.9649 21.046-9.3538 6.9309-1.1 5.7402-7.1241 8.486-9.619l-6.7592-7.3258c-10.113 10.047-27.696 13.542-44.68 14.672-21.595-1.8371-37.192-9.9147-48.238-19.898z" fill="url(#b)" fill-rule="evenodd" stroke-width="0"/>
   <ellipse cx="387.85" cy="479.15" rx="7.0154" ry="6.7231" fill="#ffe6d5" stroke-width="0"/>
   <path transform="matrix(-.72601 0 0 .76272 534.65 63.723)" d="m197.02 541.99s1e-5 0 1e-5 1e-5c0 0-1e-5 1e-5 -2e-5 1e-5 -3e-5 0-4e-5 -5e-5 -4e-5 -7e-5 0-1.3e-4 1.7e-4 -1.9e-4 2.8e-4 -1.8e-4 5e-4 1e-5 7e-4 6.6e-4 6.7e-4 1e-3 -1.2e-4 2e-3 -2e-3 2e-3 -4e-3 2e-3 -6e-3 -5.6e-4 -8e-3 -8e-3 -7e-3 -0.0125 2e-3 -0.0174 0.0238-0.0232 0.0384-0.021 0.0499 8e-3 0.0659 0.0694 0.0585 0.11156-0.0238 0.13593-0.19188 0.17792-0.3076 0.15499-0.3531-0.07-0.45858-0.50584-0.39201-0.80875 0.19311-0.87875 1.2772-1.1331 2.0363-0.95084 2.103 0.50495 2.6939 3.0998 2.2197 4.928-0.19323 0.74507-0.53891 1.4465-0.98899 2.0696" fill="#ffe6d5" fill-rule="evenodd" stroke="#fca" stroke-width="1px"/>
   <path transform="matrix(.92241 -.38621 .4221 .90655 0 0)" d="m-8.6184 671.34 22.219 0.0914c2.6572 0.0109 2.3822 2.0481 2.3822 4.7058s-2.1434 4.5155-4.7972 4.7972l-21.138 2.2439c-2.6537 0.28172-3.4632-4.3835-3.4632-7.0411s2.14-4.8081 4.7972-4.7972z" fill="#f2f2f2" stroke-width="0"/>
   <path d="m334 606.73c3.5827-14.193 13.965-39.979 12.821-59.574l3.5077-3.2605c7.1825-1.7528 12.178-7.7553 17.156-14.468 0.90808 2.2261 1.8852-0.64453 3.7706 5.9794 0.97824 7.0276 1.3448 15.517-0.87692 22.544-5.7273 18.908-8.7473 39.17-12.402 59.114" fill="#a80" fill-rule="evenodd" stroke="#a80" stroke-width="1px"/>
   <path transform="matrix(.8747 .48467 -.37092 .92866 0 0)" d="m543.22 368.68 19.382 0.58385c2.9014 0.0874 5.9854-3.9202 5.4542 5.4542-0.17219 3.0384-2.4326 5.4542-5.4542 5.4542h-18.163c-3.083 0-7.09-0.409-6.6733-6.038 0.22518-3.0416 2.4453-5.5448 5.4542-5.4542z" fill="#f2f2f2" stroke-width="0"/>
   <path d="m315.69 547.84v72.639" fill="#fc0" fill-rule="evenodd" stroke="#a80" stroke-width="1.008px"/>
   <g transform="translate(.20669 10.335)">
    <circle cx="321.1" cy="556.02" r="3.0692" fill="#a80" stroke-width="0"/>
    <circle cx="320.16" cy="555.28" r=".34653" fill="#d4aa00" stroke-width="0"/>
    <circle cx="320.36" cy="556.96" r=".34653" fill="#d4aa00" stroke-width="0"/>
    <circle cx="322.14" cy="556.96" r=".34653" fill="#d4aa00" stroke-width="0"/>
    <circle cx="321.94" cy="555.28" r=".34653" fill="#d4aa00" stroke-width="0"/>
    <path d="m322.07 555.33-1.7821 1.7821" fill="none" stroke="#000" stroke-width=".13548"/>
    <path d="m320.17 555.33 1.7821 1.7821" fill="none" stroke="#000" stroke-width=".067742"/>
   </g>
   <g transform="translate(.20669 22.943)">
    <circle cx="321.1" cy="556.02" r="3.0692" fill="#a80" stroke-width="0"/>
    <circle cx="320.16" cy="555.28" r=".34653" fill="#d4aa00" stroke-width="0"/>
    <circle cx="320.36" cy="556.96" r=".34653" fill="#d4aa00" stroke-width="0"/>
    <circle cx="322.14" cy="556.96" r=".34653" fill="#d4aa00" stroke-width="0"/>
    <circle cx="321.94" cy="555.28" r=".34653" fill="#d4aa00" stroke-width="0"/>
    <path d="m322.07 555.33-1.7821 1.7821" fill="none" stroke="#000" stroke-width=".13548"/>
    <path d="m320.17 555.33 1.7821 1.7821" fill="none" stroke="#000" stroke-width=".067742"/>
   </g>
   <g transform="translate(0 35.551)">
    <circle cx="321.1" cy="556.02" r="3.0692" fill="#a80" stroke-width="0"/>
    <circle cx="320.16" cy="555.28" r=".34653" fill="#d4aa00" stroke-width="0"/>
    <circle cx="320.36" cy="556.96" r=".34653" fill="#d4aa00" stroke-width="0"/>
    <circle cx="322.14" cy="556.96" r=".34653" fill="#d4aa00" stroke-width="0"/>
    <circle cx="321.94" cy="555.28" r=".34653" fill="#d4aa00" stroke-width="0"/>
    <path d="m322.07 555.33-1.7821 1.7821" fill="none" stroke="#000" stroke-width=".13548"/>
    <path d="m320.17 555.33 1.7821 1.7821" fill="none" stroke="#000" stroke-width=".067742"/>
   </g>
   <g transform="translate(0 48.159)">
    <circle cx="321.1" cy="556.02" r="3.0692" fill="#a80" stroke-width="0"/>
    <circle cx="320.16" cy="555.28" r=".34653" fill="#d4aa00" stroke-width="0"/>
    <circle cx="320.36" cy="556.96" r=".34653" fill="#d4aa00" stroke-width="0"/>
    <circle cx="322.14" cy="556.96" r=".34653" fill="#d4aa00" stroke-width="0"/>
    <circle cx="321.94" cy="555.28" r=".34653" fill="#d4aa00" stroke-width="0"/>
    <path d="m322.07 555.33-1.7821 1.7821" fill="none" stroke="#000" stroke-width=".13548"/>
    <path d="m320.17 555.33 1.7821 1.7821" fill="none" stroke="#000" stroke-width=".067742"/>
   </g>
   <g transform="translate(.20669 -2.687)">
    <circle cx="321.1" cy="556.02" r="3.0692" fill="#a80" stroke-width="0"/>
    <circle cx="320.16" cy="555.28" r=".34653" fill="#d4aa00" stroke-width="0"/>
    <circle cx="320.36" cy="556.96" r=".34653" fill="#d4aa00" stroke-width="0"/>
    <circle cx="322.14" cy="556.96" r=".34653" fill="#d4aa00" stroke-width="0"/>
    <circle cx="321.94" cy="555.28" r=".34653" fill="#d4aa00" stroke-width="0"/>
    <path d="m322.07 555.33-1.7821 1.7821" fill="none" stroke="#000" stroke-width=".13548"/>
    <path d="m320.17 555.33 1.7821 1.7821" fill="none" stroke="#000" stroke-width=".067742"/>
   </g>
   <rect transform="scale(-1)" x="-316.65" y="-623.28" width="1.7893" height="4.0235" ry="1.0538" fill="#a0892c" stroke="#a0892c" stroke-width=".96631"/>
   <rect transform="scale(-1)" x="-316.28" y="-623.42" width="1.1486" height="1.207" ry=".31611" fill="#540" stroke="#a0892c" stroke-width=".42404"/>
   <rect transform="scale(-1)" x="-316.38" y="-622.04" width="1.3618" height="1.8991" ry=".49738" fill="#540" stroke="#a0892c" stroke-width=".57916"/>
   <path transform="scale(1,-1)" d="m314.32-689.91a21.489 14.602 0 0 1 -12.016 13.107 21.489 14.602 0 0 1 -22.61 -1.5506 21.489 14.602 0 0 1 -7.9195 -14.474" fill="#502d16" stroke="#502d16" stroke-width=".86795"/>
   <path transform="scale(-1)" d="m-318.85-690.89a21.489 14.602 0 0 1 -12.016 13.107 21.489 14.602 0 0 1 -22.61 -1.5506 21.489 14.602 0 0 1 -7.9195 -14.474" fill="#502d16" stroke="#502d16" stroke-width=".86795"/>
   <g fill="none" stroke="#a05a2c" stroke-width=".68524">
    <path d="m286.48 676.19c-4.104 0.29029-5.7488-1.8294-6.7985-4.5323 1.8107-8e-3 3.4431-0.60919 6.7985 4.5323z"/>
    <path d="m286.19 676.48c4.5368-6.1509 5.8976-2.7738 8.2148-2.2662-2.388 1.1932-4.7834 2.3772-8.2148 2.2662z"/>
    <path d="m286.48 676.76c3.4449 1.2365 8.1112 2.1721 7.5368 4.1518-0.44887-2.1343-4.2901-3.035-7.5368-4.1518z"/>
   </g>
   <g transform="matrix(-1 0 0 1 630.03 .10015)" fill="none" stroke="#a05a2c" stroke-width=".68524">
    <path d="m286.48 676.19c-4.104 0.29029-5.7488-1.8294-6.7985-4.5323 1.8107-8e-3 3.4431-0.60919 6.7985 4.5323z"/>
    <path d="m286.19 676.48c4.5368-6.1509 5.8976-2.7738 8.2148-2.2662-2.388 1.1932-4.7834 2.3772-8.2148 2.2662z"/>
    <path d="m286.48 676.76c3.4449 1.2365 8.1112 2.1721 7.5368 4.1518-0.44887-2.1343-4.2901-3.035-7.5368-4.1518z"/>
   </g>
  </g>
 </g>
</svg>
